
<svg width="375" height="393" viewBox="0 0 375 393" fill="none" xmlns="http://www.w3.org/2000/svg">
<ellipse cx="202.63" cy="81.0001" rx="225.63" ry="225" transform="rotate(-40.2826 202.63 81.0001)" fill="url(#paint0_linear_0_1)"/>
<ellipse cx="87.6302" cy="168" rx="225.63" ry="225" fill="url(#paint1_linear_0_1)"/>
<ellipse cx="21.63" cy="128" rx="225.63" ry="225" fill="url(#paint2_linear_0_1)"/>
<ellipse cx="131.5" cy="204.5" rx="99.5" ry="43.5" fill="url(#paint3_linear_0_1)"/>
<path d="M38.552 212L48.44 189.6H54.68L64.6 212H58.008L50.264 192.704H52.76L45.016 212H38.552ZM43.96 207.648L45.592 202.976H56.536L58.168 207.648H43.96ZM88.7003 194.368C90.0443 194.368 91.2389 194.645 92.2843 195.2C93.3509 195.733 94.1829 196.565 94.7803 197.696C95.3989 198.827 95.7083 200.288 95.7083 202.08V212H89.6283V203.072C89.6283 201.835 89.3936 200.939 88.9243 200.384C88.4549 199.808 87.8149 199.52 87.0043 199.52C86.4283 199.52 85.9056 199.659 85.4363 199.936C84.9669 200.213 84.6043 200.64 84.3483 201.216C84.0923 201.771 83.9643 202.496 83.9643 203.392V212H77.8843V203.072C77.8843 201.835 77.6496 200.939 77.1803 200.384C76.7323 199.808 76.0923 199.52 75.2603 199.52C74.6629 199.52 74.1296 199.659 73.6603 199.936C73.2123 200.213 72.8496 200.64 72.5723 201.216C72.3163 201.771 72.1883 202.496 72.1883 203.392V212H66.1083V194.656H71.9003V199.488L70.7483 198.112C71.3883 196.875 72.2629 195.947 73.3723 195.328C74.4816 194.688 75.7189 194.368 77.0843 194.368C78.6416 194.368 80.0069 194.773 81.1803 195.584C82.3749 196.373 83.1749 197.611 83.5803 199.296L81.5963 198.88C82.2149 197.472 83.1429 196.373 84.3803 195.584C85.6389 194.773 87.0789 194.368 88.7003 194.368ZM110.458 212.288C108.9 212.288 107.599 211.968 106.554 211.328C105.53 210.688 104.762 209.707 104.25 208.384C103.738 207.061 103.482 205.365 103.482 203.296C103.482 201.269 103.748 199.595 104.282 198.272C104.836 196.949 105.636 195.968 106.682 195.328C107.727 194.688 108.986 194.368 110.458 194.368C112.036 194.368 113.466 194.731 114.746 195.456C116.047 196.181 117.071 197.216 117.818 198.56C118.586 199.883 118.97 201.461 118.97 203.296C118.97 205.152 118.586 206.752 117.818 208.096C117.071 209.419 116.047 210.453 114.746 211.2C113.466 211.925 112.036 212.288 110.458 212.288ZM99.5458 212V188.256H105.626V197.568L105.306 203.296L105.338 209.024V212H99.5458ZM109.178 207.456C109.86 207.456 110.468 207.296 111.002 206.976C111.556 206.656 111.994 206.187 112.314 205.568C112.655 204.928 112.826 204.171 112.826 203.296C112.826 202.421 112.655 201.685 112.314 201.088C111.994 200.469 111.556 200 111.002 199.68C110.468 199.36 109.86 199.2 109.178 199.2C108.495 199.2 107.876 199.36 107.322 199.68C106.788 200 106.351 200.469 106.01 201.088C105.69 201.685 105.53 202.421 105.53 203.296C105.53 204.171 105.69 204.928 106.01 205.568C106.351 206.187 106.788 206.656 107.322 206.976C107.876 207.296 108.495 207.456 109.178 207.456ZM129.092 212.288C127.684 212.288 126.414 212.011 125.284 211.456C124.174 210.901 123.3 210.037 122.66 208.864C122.041 207.669 121.732 206.165 121.732 204.352V194.656H127.812V203.36C127.812 204.704 128.057 205.664 128.548 206.24C129.06 206.816 129.774 207.104 130.692 207.104C131.289 207.104 131.833 206.965 132.324 206.688C132.814 206.411 133.209 205.973 133.508 205.376C133.806 204.757 133.956 203.968 133.956 203.008V194.656H140.036V212H134.244V207.104L135.364 208.48C134.766 209.76 133.902 210.72 132.772 211.36C131.641 211.979 130.414 212.288 129.092 212.288ZM141.84 212L151.92 189.6H156.016L166.128 212H161.776L153.104 191.808H154.768L146.128 212H141.84ZM146.48 206.816L147.6 203.552H159.696L160.816 206.816H146.48ZM178.065 212.224C176.678 212.224 175.409 211.904 174.257 211.264C173.126 210.624 172.219 209.664 171.537 208.384C170.875 207.083 170.545 205.44 170.545 203.456C170.545 201.451 170.865 199.808 171.505 198.528C172.166 197.248 173.062 196.299 174.193 195.68C175.323 195.04 176.614 194.72 178.065 194.72C179.75 194.72 181.233 195.083 182.513 195.808C183.814 196.533 184.838 197.547 185.585 198.848C186.353 200.149 186.737 201.685 186.737 203.456C186.737 205.227 186.353 206.773 185.585 208.096C184.838 209.397 183.814 210.411 182.513 211.136C181.233 211.861 179.75 212.224 178.065 212.224ZM168.593 218.208V194.912H172.401V198.944L172.273 203.488L172.593 208.032V218.208H168.593ZM177.617 208.8C178.577 208.8 179.43 208.587 180.177 208.16C180.945 207.733 181.553 207.115 182.001 206.304C182.449 205.493 182.673 204.544 182.673 203.456C182.673 202.347 182.449 201.397 182.001 200.608C181.553 199.797 180.945 199.179 180.177 198.752C179.43 198.325 178.577 198.112 177.617 198.112C176.657 198.112 175.793 198.325 175.025 198.752C174.257 199.179 173.649 199.797 173.201 200.608C172.753 201.397 172.529 202.347 172.529 203.456C172.529 204.544 172.753 205.493 173.201 206.304C173.649 207.115 174.257 207.733 175.025 208.16C175.793 208.587 176.657 208.8 177.617 208.8ZM200.002 212.224C198.616 212.224 197.346 211.904 196.194 211.264C195.064 210.624 194.157 209.664 193.474 208.384C192.813 207.083 192.482 205.44 192.482 203.456C192.482 201.451 192.802 199.808 193.442 198.528C194.104 197.248 195 196.299 196.13 195.68C197.261 195.04 198.552 194.72 200.002 194.72C201.688 194.72 203.17 195.083 204.45 195.808C205.752 196.533 206.776 197.547 207.522 198.848C208.29 200.149 208.674 201.685 208.674 203.456C208.674 205.227 208.29 206.773 207.522 208.096C206.776 209.397 205.752 210.411 204.45 211.136C203.17 211.861 201.688 212.224 200.002 212.224ZM190.53 218.208V194.912H194.338V198.944L194.21 203.488L194.53 208.032V218.208H190.53ZM199.554 208.8C200.514 208.8 201.368 208.587 202.114 208.16C202.882 207.733 203.49 207.115 203.938 206.304C204.386 205.493 204.61 204.544 204.61 203.456C204.61 202.347 204.386 201.397 203.938 200.608C203.49 199.797 202.882 199.179 202.114 198.752C201.368 198.325 200.514 198.112 199.554 198.112C198.594 198.112 197.73 198.325 196.962 198.752C196.194 199.179 195.586 199.797 195.138 200.608C194.69 201.397 194.466 202.347 194.466 203.456C194.466 204.544 194.69 205.493 195.138 206.304C195.586 207.115 196.194 207.733 196.962 208.16C197.73 208.587 198.594 208.8 199.554 208.8Z" fill="#E5E5E5"/>
<path d="M42.36 295.16C41.2933 295.16 40.3067 294.987 39.4 294.64C38.5067 294.28 37.7267 293.78 37.06 293.14C36.4067 292.487 35.8933 291.727 35.52 290.86C35.1467 289.993 34.96 289.04 34.96 288C34.96 286.96 35.1467 286.007 35.52 285.14C35.8933 284.273 36.4133 283.52 37.08 282.88C37.7467 282.227 38.5267 281.727 39.42 281.38C40.3267 281.02 41.3133 280.84 42.38 280.84C43.46 280.84 44.4533 281.027 45.36 281.4C46.28 281.76 47.06 282.3 47.7 283.02L46.4 284.28C45.8667 283.72 45.2667 283.307 44.6 283.04C43.9333 282.76 43.22 282.62 42.46 282.62C41.6733 282.62 40.94 282.753 40.26 283.02C39.5933 283.287 39.0133 283.66 38.52 284.14C38.0267 284.62 37.64 285.193 37.36 285.86C37.0933 286.513 36.96 287.227 36.96 288C36.96 288.773 37.0933 289.493 37.36 290.16C37.64 290.813 38.0267 291.38 38.52 291.86C39.0133 292.34 39.5933 292.713 40.26 292.98C40.94 293.247 41.6733 293.38 42.46 293.38C43.22 293.38 43.9333 293.247 44.6 292.98C45.2667 292.7 45.8667 292.273 46.4 291.7L47.7 292.96C47.06 293.68 46.28 294.227 45.36 294.6C44.4533 294.973 43.4533 295.16 42.36 295.16ZM55.9331 284.3C56.7998 284.3 57.5598 284.467 58.2131 284.8C58.8798 285.133 59.3998 285.64 59.7731 286.32C60.1465 287 60.3331 287.86 60.3331 288.9V295H58.4131V289.12C58.4131 288.093 58.1598 287.32 57.6531 286.8C57.1598 286.28 56.4598 286.02 55.5531 286.02C54.8731 286.02 54.2798 286.153 53.7731 286.42C53.2665 286.687 52.8731 287.08 52.5931 287.6C52.3265 288.12 52.1931 288.767 52.1931 289.54V295H50.2731V280.16H52.1931V287.26L51.8131 286.5C52.1598 285.807 52.6931 285.267 53.4131 284.88C54.1331 284.493 54.9731 284.3 55.9331 284.3ZM68.4264 295.12C67.3597 295.12 66.4131 294.887 65.5864 294.42C64.7597 293.953 64.1064 293.313 63.6264 292.5C63.1464 291.673 62.9064 290.74 62.9064 289.7C62.9064 288.647 63.1464 287.713 63.6264 286.9C64.1064 286.087 64.7597 285.453 65.5864 285C66.4131 284.533 67.3597 284.3 68.4264 284.3C69.4797 284.3 70.4197 284.533 71.2464 285C72.0864 285.453 72.7397 286.087 73.2064 286.9C73.6864 287.7 73.9264 288.633 73.9264 289.7C73.9264 290.753 73.6864 291.687 73.2064 292.5C72.7397 293.313 72.0864 293.953 71.2464 294.42C70.4197 294.887 69.4797 295.12 68.4264 295.12ZM68.4264 293.44C69.1064 293.44 69.7131 293.287 70.2464 292.98C70.7931 292.673 71.2197 292.24 71.5264 291.68C71.8331 291.107 71.9864 290.447 71.9864 289.7C71.9864 288.94 71.8331 288.287 71.5264 287.74C71.2197 287.18 70.7931 286.747 70.2464 286.44C69.7131 286.133 69.1064 285.98 68.4264 285.98C67.7464 285.98 67.1397 286.133 66.6064 286.44C66.0731 286.747 65.6464 287.18 65.3264 287.74C65.0064 288.287 64.8464 288.94 64.8464 289.7C64.8464 290.447 65.0064 291.107 65.3264 291.68C65.6464 292.24 66.0731 292.673 66.6064 292.98C67.1397 293.287 67.7464 293.44 68.4264 293.44ZM81.1217 295.12C80.0551 295.12 79.1084 294.887 78.2817 294.42C77.4551 293.953 76.8017 293.313 76.3217 292.5C75.8417 291.673 75.6017 290.74 75.6017 289.7C75.6017 288.647 75.8417 287.713 76.3217 286.9C76.8017 286.087 77.4551 285.453 78.2817 285C79.1084 284.533 80.0551 284.3 81.1217 284.3C82.1751 284.3 83.1151 284.533 83.9417 285C84.7817 285.453 85.4351 286.087 85.9017 286.9C86.3817 287.7 86.6217 288.633 86.6217 289.7C86.6217 290.753 86.3817 291.687 85.9017 292.5C85.4351 293.313 84.7817 293.953 83.9417 294.42C83.1151 294.887 82.1751 295.12 81.1217 295.12ZM81.1217 293.44C81.8017 293.44 82.4084 293.287 82.9417 292.98C83.4884 292.673 83.9151 292.24 84.2217 291.68C84.5284 291.107 84.6817 290.447 84.6817 289.7C84.6817 288.94 84.5284 288.287 84.2217 287.74C83.9151 287.18 83.4884 286.747 82.9417 286.44C82.4084 286.133 81.8017 285.98 81.1217 285.98C80.4417 285.98 79.8351 286.133 79.3017 286.44C78.7684 286.747 78.3417 287.18 78.0217 287.74C77.7017 288.287 77.5417 288.94 77.5417 289.7C77.5417 290.447 77.7017 291.107 78.0217 291.68C78.3417 292.24 78.7684 292.673 79.3017 292.98C79.8351 293.287 80.4417 293.44 81.1217 293.44ZM92.317 295.12C91.437 295.12 90.597 295 89.797 294.76C89.0104 294.52 88.3904 294.227 87.937 293.88L88.737 292.36C89.1904 292.667 89.7504 292.927 90.417 293.14C91.0837 293.353 91.7637 293.46 92.457 293.46C93.3504 293.46 93.9904 293.333 94.377 293.08C94.777 292.827 94.977 292.473 94.977 292.02C94.977 291.687 94.857 291.427 94.617 291.24C94.377 291.053 94.057 290.913 93.657 290.82C93.2704 290.727 92.837 290.647 92.357 290.58C91.877 290.5 91.397 290.407 90.917 290.3C90.437 290.18 89.997 290.02 89.597 289.82C89.197 289.607 88.877 289.32 88.637 288.96C88.397 288.587 88.277 288.093 88.277 287.48C88.277 286.84 88.457 286.28 88.817 285.8C89.177 285.32 89.6837 284.953 90.337 284.7C91.0037 284.433 91.7904 284.3 92.697 284.3C93.3904 284.3 94.0904 284.387 94.797 284.56C95.517 284.72 96.1037 284.953 96.557 285.26L95.737 286.78C95.257 286.46 94.757 286.24 94.237 286.12C93.717 286 93.197 285.94 92.677 285.94C91.837 285.94 91.2104 286.08 90.797 286.36C90.3837 286.627 90.177 286.973 90.177 287.4C90.177 287.76 90.297 288.04 90.537 288.24C90.7904 288.427 91.1104 288.573 91.497 288.68C91.897 288.787 92.337 288.88 92.817 288.96C93.297 289.027 93.777 289.12 94.257 289.24C94.737 289.347 95.1704 289.5 95.557 289.7C95.957 289.9 96.277 290.18 96.517 290.54C96.7704 290.9 96.897 291.38 96.897 291.98C96.897 292.62 96.7104 293.173 96.337 293.64C95.9637 294.107 95.437 294.473 94.757 294.74C94.077 294.993 93.2637 295.12 92.317 295.12ZM104.017 295.12C102.883 295.12 101.883 294.887 101.017 294.42C100.163 293.953 99.4966 293.313 99.0166 292.5C98.5499 291.687 98.3166 290.753 98.3166 289.7C98.3166 288.647 98.5432 287.713 98.9966 286.9C99.4632 286.087 100.097 285.453 100.897 285C101.71 284.533 102.623 284.3 103.637 284.3C104.663 284.3 105.57 284.527 106.357 284.98C107.143 285.433 107.757 286.073 108.197 286.9C108.65 287.713 108.877 288.667 108.877 289.76C108.877 289.84 108.87 289.933 108.857 290.04C108.857 290.147 108.85 290.247 108.837 290.34H99.8166V288.96H107.837L107.057 289.44C107.07 288.76 106.93 288.153 106.637 287.62C106.343 287.087 105.937 286.673 105.417 286.38C104.91 286.073 104.317 285.92 103.637 285.92C102.97 285.92 102.377 286.073 101.857 286.38C101.337 286.673 100.93 287.093 100.637 287.64C100.343 288.173 100.197 288.787 100.197 289.48V289.8C100.197 290.507 100.357 291.14 100.677 291.7C101.01 292.247 101.47 292.673 102.057 292.98C102.643 293.287 103.317 293.44 104.077 293.44C104.703 293.44 105.27 293.333 105.777 293.12C106.297 292.907 106.75 292.587 107.137 292.16L108.197 293.4C107.717 293.96 107.117 294.387 106.397 294.68C105.69 294.973 104.897 295.12 104.017 295.12ZM123.494 295V292.76L123.394 292.34V288.52C123.394 287.707 123.154 287.08 122.674 286.64C122.207 286.187 121.5 285.96 120.554 285.96C119.927 285.96 119.314 286.067 118.714 286.28C118.114 286.48 117.607 286.753 117.194 287.1L116.394 285.66C116.94 285.22 117.594 284.887 118.354 284.66C119.127 284.42 119.934 284.3 120.774 284.3C122.227 284.3 123.347 284.653 124.134 285.36C124.92 286.067 125.314 287.147 125.314 288.6V295H123.494ZM120.014 295.12C119.227 295.12 118.534 294.987 117.934 294.72C117.347 294.453 116.894 294.087 116.574 293.62C116.254 293.14 116.094 292.6 116.094 292C116.094 291.427 116.227 290.907 116.494 290.44C116.774 289.973 117.22 289.6 117.834 289.32C118.46 289.04 119.3 288.9 120.354 288.9H123.714V290.28H120.434C119.474 290.28 118.827 290.44 118.494 290.76C118.16 291.08 117.994 291.467 117.994 291.92C117.994 292.44 118.2 292.86 118.614 293.18C119.027 293.487 119.6 293.64 120.334 293.64C121.054 293.64 121.68 293.48 122.214 293.16C122.76 292.84 123.154 292.373 123.394 291.76L123.774 293.08C123.52 293.707 123.074 294.207 122.434 294.58C121.794 294.94 120.987 295.12 120.014 295.12ZM134.527 284.3C135.394 284.3 136.154 284.467 136.807 284.8C137.474 285.133 137.994 285.64 138.367 286.32C138.74 287 138.927 287.86 138.927 288.9V295H137.007V289.12C137.007 288.093 136.754 287.32 136.247 286.8C135.754 286.28 135.054 286.02 134.147 286.02C133.467 286.02 132.874 286.153 132.367 286.42C131.86 286.687 131.467 287.08 131.187 287.6C130.92 288.12 130.787 288.767 130.787 289.54V295H128.867V284.4H130.707V287.26L130.407 286.5C130.754 285.807 131.287 285.267 132.007 284.88C132.727 284.493 133.567 284.3 134.527 284.3ZM152.391 295.12C151.325 295.12 150.378 294.887 149.551 294.42C148.725 293.953 148.071 293.313 147.591 292.5C147.111 291.673 146.871 290.74 146.871 289.7C146.871 288.647 147.111 287.713 147.591 286.9C148.071 286.087 148.725 285.453 149.551 285C150.378 284.533 151.325 284.3 152.391 284.3C153.445 284.3 154.385 284.533 155.211 285C156.051 285.453 156.705 286.087 157.171 286.9C157.651 287.7 157.891 288.633 157.891 289.7C157.891 290.753 157.651 291.687 157.171 292.5C156.705 293.313 156.051 293.953 155.211 294.42C154.385 294.887 153.445 295.12 152.391 295.12ZM152.391 293.44C153.071 293.44 153.678 293.287 154.211 292.98C154.758 292.673 155.185 292.24 155.491 291.68C155.798 291.107 155.951 290.447 155.951 289.7C155.951 288.94 155.798 288.287 155.491 287.74C155.185 287.18 154.758 286.747 154.211 286.44C153.678 286.133 153.071 285.98 152.391 285.98C151.711 285.98 151.105 286.133 150.571 286.44C150.038 286.747 149.611 287.18 149.291 287.74C148.971 288.287 148.811 288.94 148.811 289.7C148.811 290.447 148.971 291.107 149.291 291.68C149.611 292.24 150.038 292.673 150.571 292.98C151.105 293.287 151.711 293.44 152.391 293.44ZM166.167 295.12C165.287 295.12 164.48 294.92 163.747 294.52C163.027 294.107 162.447 293.5 162.007 292.7C161.58 291.9 161.367 290.9 161.367 289.7C161.367 288.5 161.573 287.5 161.987 286.7C162.413 285.9 162.987 285.3 163.707 284.9C164.44 284.5 165.26 284.3 166.167 284.3C167.207 284.3 168.127 284.527 168.927 284.98C169.727 285.433 170.36 286.067 170.827 286.88C171.293 287.68 171.527 288.62 171.527 289.7C171.527 290.78 171.293 291.727 170.827 292.54C170.36 293.353 169.727 293.987 168.927 294.44C168.127 294.893 167.207 295.12 166.167 295.12ZM160.547 298.88V284.4H162.387V287.26L162.267 289.72L162.467 292.18V298.88H160.547ZM166.007 293.44C166.687 293.44 167.293 293.287 167.827 292.98C168.373 292.673 168.8 292.24 169.107 291.68C169.427 291.107 169.587 290.447 169.587 289.7C169.587 288.94 169.427 288.287 169.107 287.74C168.8 287.18 168.373 286.747 167.827 286.44C167.293 286.133 166.687 285.98 166.007 285.98C165.34 285.98 164.733 286.133 164.187 286.44C163.653 286.747 163.227 287.18 162.907 287.74C162.6 288.287 162.447 288.94 162.447 289.7C162.447 290.447 162.6 291.107 162.907 291.68C163.227 292.24 163.653 292.673 164.187 292.98C164.733 293.287 165.34 293.44 166.007 293.44ZM177.819 295.12C176.753 295.12 175.926 294.833 175.339 294.26C174.753 293.687 174.459 292.867 174.459 291.8V282.08H176.379V291.72C176.379 292.293 176.519 292.733 176.799 293.04C177.093 293.347 177.506 293.5 178.039 293.5C178.639 293.5 179.139 293.333 179.539 293L180.139 294.38C179.846 294.633 179.493 294.82 179.079 294.94C178.679 295.06 178.259 295.12 177.819 295.12ZM172.659 285.98V284.4H179.419V285.98H172.659ZM182.461 295V284.4H184.381V295H182.461ZM183.421 282.36C183.047 282.36 182.734 282.24 182.481 282C182.241 281.76 182.121 281.467 182.121 281.12C182.121 280.76 182.241 280.46 182.481 280.22C182.734 279.98 183.047 279.86 183.421 279.86C183.794 279.86 184.101 279.98 184.341 280.22C184.594 280.447 184.721 280.733 184.721 281.08C184.721 281.44 184.601 281.747 184.361 282C184.121 282.24 183.807 282.36 183.421 282.36ZM192.587 295.12C191.52 295.12 190.573 294.887 189.747 294.42C188.92 293.953 188.267 293.313 187.787 292.5C187.307 291.673 187.067 290.74 187.067 289.7C187.067 288.647 187.307 287.713 187.787 286.9C188.267 286.087 188.92 285.453 189.747 285C190.573 284.533 191.52 284.3 192.587 284.3C193.64 284.3 194.58 284.533 195.407 285C196.247 285.453 196.9 286.087 197.367 286.9C197.847 287.7 198.087 288.633 198.087 289.7C198.087 290.753 197.847 291.687 197.367 292.5C196.9 293.313 196.247 293.953 195.407 294.42C194.58 294.887 193.64 295.12 192.587 295.12ZM192.587 293.44C193.267 293.44 193.873 293.287 194.407 292.98C194.953 292.673 195.38 292.24 195.687 291.68C195.993 291.107 196.147 290.447 196.147 289.7C196.147 288.94 195.993 288.287 195.687 287.74C195.38 287.18 194.953 286.747 194.407 286.44C193.873 286.133 193.267 285.98 192.587 285.98C191.907 285.98 191.3 286.133 190.767 286.44C190.233 286.747 189.807 287.18 189.487 287.74C189.167 288.287 189.007 288.94 189.007 289.7C189.007 290.447 189.167 291.107 189.487 291.68C189.807 292.24 190.233 292.673 190.767 292.98C191.3 293.287 191.907 293.44 192.587 293.44ZM206.402 284.3C207.269 284.3 208.029 284.467 208.682 284.8C209.349 285.133 209.869 285.64 210.242 286.32C210.615 287 210.802 287.86 210.802 288.9V295H208.882V289.12C208.882 288.093 208.629 287.32 208.122 286.8C207.629 286.28 206.929 286.02 206.022 286.02C205.342 286.02 204.749 286.153 204.242 286.42C203.735 286.687 203.342 287.08 203.062 287.6C202.795 288.12 202.662 288.767 202.662 289.54V295H200.742V284.4H202.582V287.26L202.282 286.5C202.629 285.807 203.162 285.267 203.882 284.88C204.602 284.493 205.442 284.3 206.402 284.3Z" fill="white"/>
<defs>
<linearGradient id="paint0_linear_0_1" x1="-234.101" y1="-273.545" x2="780.311" y2="174.286" gradientUnits="userSpaceOnUse">
<stop offset="0.109375" stop-color="#EB697A"/>
<stop offset="0.355112" stop-color="#F9BCC4"/>
<stop offset="0.697917" stop-color="#FFDCE0"/>
<stop offset="0.729167" stop-color="#FFDCE0"/>
</linearGradient>
<linearGradient id="paint1_linear_0_1" x1="-349.101" y1="-186.545" x2="665.311" y2="261.286" gradientUnits="userSpaceOnUse">
<stop offset="0.00165595" stop-color="#EB697A"/>
<stop offset="1" stop-color="#FFDCE0"/>
</linearGradient>
<linearGradient id="paint2_linear_0_1" x1="-415.101" y1="-226.545" x2="470.531" y2="611.969" gradientUnits="userSpaceOnUse">
<stop offset="0.420278" stop-color="#EB697A"/>
<stop offset="0.995206" stop-color="#F8CBD0" stop-opacity="0"/>
</linearGradient>
<linearGradient id="paint3_linear_0_1" x1="17.5" y1="248" x2="204.5" y2="144.5" gradientUnits="userSpaceOnUse">
<stop stop-color="#F44336"/>
<stop offset="1" stop-color="#FFDCE0" stop-opacity="0"/>
</linearGradient>
</defs>
</svg>
