<svg width="223" height="231" viewBox="0 0 223 231" fill="none" xmlns="http://www.w3.org/2000/svg">
<path fill-rule="evenodd" clip-rule="evenodd" d="M111.5 210.581C161.848 210.581 202.663 169.766 202.663 119.418C202.663 69.0703 161.848 28.2555 111.5 28.2555C61.1524 28.2555 20.3375 69.0703 20.3375 119.418C20.3375 169.766 61.1524 210.581 111.5 210.581Z" stroke="#3AD29F" stroke-width="0.613889" stroke-dasharray="3.68 3.68"/>
<path fill-rule="evenodd" clip-rule="evenodd" d="M111.5 229.918C172.527 229.918 222 180.445 222 119.418C222 58.3905 172.527 8.91797 111.5 8.91797C50.4725 8.91797 1 58.3905 1 119.418C1 180.445 50.4725 229.918 111.5 229.918Z" stroke="#3AD29F" stroke-width="0.613889" stroke-dasharray="3.68 3.68"/>
<path d="M62.8984 161.611C62.8984 161.611 52.4377 185.749 107.421 192.188V216.597H170.986V151.957L62.0819 149.004L62.8984 161.611Z" fill="#BE7C5E"/>
<path d="M92.7764 59.6528C89.5692 64.7137 82.877 66.2346 77.7975 63.0569L46.0625 42.1355C41.0016 38.9283 39.4808 32.2361 42.6585 27.1566C45.8657 22.0957 52.5579 20.5749 57.6374 23.7526L89.3662 44.6617C94.4368 47.8673 95.9613 54.5692 92.7764 59.6528Z" fill="#BE7C5E"/>
<path d="M152.855 0.415649H64.9397C62.6274 0.415649 60.7529 2.29011 60.7529 4.60237V170.033C60.7529 172.345 62.6274 174.22 64.9397 174.22H152.855C155.167 174.22 157.041 172.345 157.041 170.033V4.60237C157.041 2.29011 155.167 0.415649 152.855 0.415649Z" fill="white"/>
<path d="M133.087 4.77429C132.512 8.58287 129.244 11.4022 125.392 11.4135H92.138C88.2874 11.4007 85.0214 8.58173 84.446 4.77429H66.8274C65.8573 4.77429 64.9266 5.15827 64.2404 5.84394C63.5542 6.52961 63.1686 7.45992 63.1686 8.43V166.199C63.1686 167.17 63.5526 168.1 64.2382 168.786C64.9239 169.473 65.8542 169.858 66.8243 169.858H150.97C151.94 169.858 152.871 169.474 153.557 168.789C154.243 168.103 154.629 167.173 154.629 166.203V8.43307C154.629 7.46299 154.245 6.53235 153.559 5.84611C152.873 5.15987 151.943 4.77429 150.973 4.77429H133.087Z" fill="#F56C68"/>
<path d="M119.149 6.85229H98.9183C98.5793 6.85229 98.3044 7.12714 98.3044 7.46618V7.57975C98.3044 7.91879 98.5793 8.19364 98.9183 8.19364H119.149C119.488 8.19364 119.763 7.91879 119.763 7.57975V7.46618C119.763 7.12714 119.488 6.85229 119.149 6.85229Z" fill="#DBDBDB"/>
<path d="M168.549 86.3337C167.198 80.4883 161.365 76.8446 155.52 78.1952C149.674 79.5458 146.031 85.3792 147.381 91.2245L162.019 154.576C163.369 160.421 169.203 164.065 175.048 162.714C180.893 161.363 184.537 155.53 183.186 149.685L168.549 86.3337Z" fill="#BE7C5E"/>
<path d="M180.234 211.065H94.2897V227.64H180.234V211.065Z" fill="#FED3D8"/>
<path d="M108.897 113.301C123.247 113.301 134.88 101.668 134.88 87.3178C134.88 72.9679 123.247 61.335 108.897 61.335C94.5472 61.335 82.9143 72.9679 82.9143 87.3178C82.9143 101.668 94.5472 113.301 108.897 113.301Z" fill="#69F0AE"/>
<path d="M97.62 83.8493L107.362 92.7814L121.166 72.4832L126.04 76.544L107.362 100.903L93.5591 85.4761L97.62 83.8493Z" fill="white"/>
<path d="M74.5285 154.867C71.3213 159.928 64.6291 161.449 59.5496 158.271L46.3264 148.645C41.2655 145.438 39.7447 138.746 42.9224 133.666C46.1296 128.606 52.8218 127.085 57.9013 130.262L71.1214 139.907C76.1722 143.112 77.6931 149.791 74.5285 154.867Z" fill="#BE7C5E"/>
<path d="M80.161 123.476C76.9538 128.537 70.2615 130.058 65.1821 126.88L43.6469 112.945C38.586 109.737 37.0651 103.045 40.2428 97.9657C43.4501 92.9048 50.1423 91.384 55.2217 94.5617L76.757 108.497C81.8179 111.704 83.3387 118.396 80.161 123.476Z" fill="#BE7C5E"/>
<path d="M85.7965 92.1061C82.5892 97.167 75.897 98.6879 70.8176 95.5101L43.6499 77.8209C38.589 74.6137 37.0682 67.9215 40.2459 62.842C43.4531 57.7812 50.1453 56.2603 55.2248 59.438L82.3894 77.1272C87.4513 80.3334 88.9736 87.0259 85.7965 92.1061Z" fill="#BE7C5E"/>
</svg>
